# xmcd CD database file
#
# Track frame offsets:
#	150
#	15442
#	28962
#	44418
#	55775
#	72082
#	92893
#	105343
#	124773
#	138806
#	148573
#	165771
#	175156
#	186919
#	203269
#	220408
#	234407
#	251815
#	261681
#
# Disc length: 3669 seconds
#
# Revision: 0
# Processed by: cddbd v1.5.2PL0 Copyright (c) Steve Scherf et al.
# Submitted via: CDex 1.70beta2
#
DISCID=080e5313
DTITLE=KOBUS FOURIE - COUNTRY KONSERTINA
DYEAR=1998
DGENRE=Country
TTITLE0=LIVING NEXT DOOR TO ALICE
TTITLE1=TREIN NA PRETORIA
TTITLE2=TINY BUBBLES
TTITLE3=SEND ME THE PILLOW
TTITLE4=I NEED MORE OF YOU
TTITLE5=STILLE NAG
TTITLE6=ASHES OF LOVE
TTITLE7=BABY BLUE
TTITLE8=DARLING
TTITLE9=HE'LL HAVE TO GO
TTITLE10=BLUE EYES CRYING IN THE RAIN
TTITLE11=BETHLEHEM STER
TTITLE12=I WANNA LIVE
TTITLE13=CALIFORNIA BLUES
TTITLE14=HELP ME MAKE IT THROUGH THE NIGHT
TTITLE15=HUSH HUSH MARIA
TTITLE16=SAD SONGS
TTITLE17=EK MIS JOU
TTITLE18=TARKASTAD
EXTD=YEAR: 1998
EXTT0=
EXTT1=
EXTT2=
EXTT3=
EXTT4=
EXTT5=
EXTT6=
EXTT7=
EXTT8=
EXTT9=
EXTT10=
EXTT11=
EXTT12=
EXTT13=
EXTT14=
EXTT15=
EXTT16=
EXTT17=
EXTT18=
PLAYORDER=
